<svg width="30" height="30" viewBox="0 0 30 30" fill="none" xmlns="http://www.w3.org/2000/svg">
<path d="M15 30C6.72857 30 0 23.2714 0 15C0 6.72857 6.72857 0 15 0C23.2714 0 30 6.72857 30 15C30 23.2714 23.2714 30 15 30ZM15 2.15204C7.91633 2.15204 2.15204 7.91633 2.15204 15C2.15204 22.0837 7.91633 27.848 15 27.848C22.0837 27.848 27.848 22.0837 27.848 15C27.848 7.91633 22.0837 2.15204 15 2.15204ZM16.5092 15.0459L21.1408 10.4633C21.5633 10.0469 21.5663 9.37041 21.15 8.94796C20.7337 8.52551 20.0541 8.52245 19.6347 8.93878L14.9969 13.5276L10.4265 8.9449C10.0071 8.52551 9.33061 8.52245 8.91122 8.94184C8.49184 9.35816 8.49184 10.0378 8.90816 10.4571L13.4694 15.0337L8.87143 19.5857C8.44898 20.002 8.44592 20.6786 8.86224 21.101C9.07347 21.3122 9.34898 21.4194 9.62449 21.4194C9.89694 21.4194 10.1694 21.3153 10.3776 21.1102L14.9847 16.5551L19.6286 21.2143C19.8367 21.4255 20.1122 21.5296 20.3878 21.5296C20.6633 21.5296 20.9357 21.4255 21.1439 21.2173C21.5633 20.798 21.5633 20.1214 21.1469 19.702L16.5092 15.0459Z" fill="#000000"/>
</svg>
